<svg width="250" height="37" viewBox="0 0 250 37" fill="none" xmlns="http://www.w3.org/2000/svg">
<rect x="1" y="1" width="248" height="35" stroke="#222222" stroke-width="2"/>
<g filter="url(#filter0_d)">
<text x="20" y="25" fill="red" font-family="bold">I love SVG!</text>
<path d="M137.081 18.832C137.665 18.832 138.169 18.76 138.593 18.616C139.017 18.464 139.365 18.26 139.637 18.004C139.909 17.74 140.109 17.432 140.237 17.08C140.365 16.728 140.429 16.344 140.429 15.928C140.429 15.104 140.153 14.464 139.601 14.008C139.057 13.552 138.225 13.324 137.105 13.324H135.233V18.832H137.081ZM145.517 28H142.265C141.657 28 141.217 27.768 140.945 27.304L137.633 21.964C137.497 21.756 137.345 21.604 137.177 21.508C137.017 21.412 136.777 21.364 136.457 21.364H135.233V28H131.633V10.588H137.105C138.321 10.588 139.361 10.716 140.225 10.972C141.089 11.22 141.797 11.568 142.349 12.016C142.901 12.464 143.305 13 143.561 13.624C143.817 14.24 143.945 14.92 143.945 15.664C143.945 16.24 143.861 16.788 143.693 17.308C143.533 17.82 143.297 18.288 142.985 18.712C142.673 19.136 142.289 19.512 141.833 19.84C141.377 20.168 140.857 20.432 140.273 20.632C140.505 20.76 140.721 20.916 140.921 21.1C141.121 21.276 141.301 21.488 141.461 21.736L145.517 28ZM160.99 20.356C160.99 20.012 160.942 19.684 160.846 19.372C160.758 19.06 160.614 18.784 160.414 18.544C160.214 18.304 159.962 18.116 159.658 17.98C159.354 17.836 158.99 17.764 158.566 17.764C157.774 17.764 157.154 17.988 156.706 18.436C156.258 18.884 155.966 19.524 155.83 20.356H160.99ZM155.782 22.324C155.886 23.484 156.214 24.332 156.766 24.868C157.326 25.404 158.054 25.672 158.95 25.672C159.406 25.672 159.798 25.62 160.126 25.516C160.462 25.404 160.754 25.284 161.002 25.156C161.258 25.02 161.486 24.9 161.686 24.796C161.894 24.684 162.098 24.628 162.298 24.628C162.554 24.628 162.754 24.724 162.898 24.916L163.858 26.116C163.506 26.524 163.118 26.864 162.694 27.136C162.27 27.4 161.83 27.612 161.374 27.772C160.918 27.924 160.458 28.028 159.994 28.084C159.53 28.148 159.082 28.18 158.65 28.18C157.786 28.18 156.978 28.04 156.226 27.76C155.482 27.472 154.83 27.052 154.27 26.5C153.718 25.94 153.282 25.248 152.962 24.424C152.642 23.6 152.482 22.644 152.482 21.556C152.482 20.716 152.618 19.924 152.89 19.18C153.17 18.436 153.57 17.788 154.09 17.236C154.61 16.684 155.242 16.248 155.986 15.928C156.73 15.6 157.57 15.436 158.506 15.436C159.298 15.436 160.026 15.564 160.69 15.82C161.362 16.068 161.938 16.432 162.418 16.912C162.906 17.392 163.282 17.984 163.546 18.688C163.818 19.384 163.954 20.18 163.954 21.076C163.954 21.324 163.942 21.528 163.918 21.688C163.894 21.848 163.854 21.976 163.798 22.072C163.742 22.168 163.666 22.236 163.57 22.276C163.474 22.308 163.35 22.324 163.198 22.324H155.782ZM180.901 18.172C180.813 18.308 180.721 18.408 180.625 18.472C180.537 18.528 180.413 18.556 180.253 18.556C180.093 18.556 179.929 18.516 179.761 18.436C179.593 18.356 179.405 18.272 179.197 18.184C178.989 18.088 178.749 18 178.477 17.92C178.213 17.84 177.905 17.8 177.553 17.8C177.017 17.8 176.601 17.912 176.305 18.136C176.009 18.352 175.861 18.64 175.861 19C175.861 19.248 175.945 19.456 176.113 19.624C176.281 19.792 176.501 19.94 176.773 20.068C177.053 20.188 177.369 20.304 177.721 20.416C178.073 20.52 178.433 20.636 178.801 20.764C179.177 20.892 179.541 21.04 179.893 21.208C180.245 21.376 180.557 21.588 180.829 21.844C181.109 22.092 181.333 22.396 181.501 22.756C181.669 23.108 181.753 23.536 181.753 24.04C181.753 24.64 181.641 25.196 181.417 25.708C181.201 26.212 180.881 26.648 180.457 27.016C180.033 27.384 179.505 27.672 178.873 27.88C178.241 28.088 177.513 28.192 176.689 28.192C176.265 28.192 175.845 28.152 175.429 28.072C175.013 28 174.617 27.896 174.241 27.76C173.865 27.616 173.513 27.452 173.185 27.268C172.857 27.084 172.573 26.884 172.333 26.668L173.101 25.432C173.189 25.288 173.297 25.176 173.425 25.096C173.561 25.016 173.733 24.976 173.941 24.976C174.141 24.976 174.325 25.028 174.493 25.132C174.661 25.228 174.849 25.336 175.057 25.456C175.265 25.568 175.509 25.676 175.789 25.78C176.077 25.876 176.433 25.924 176.857 25.924C177.177 25.924 177.453 25.888 177.685 25.816C177.917 25.744 178.105 25.648 178.249 25.528C178.393 25.4 178.497 25.26 178.561 25.108C178.633 24.948 178.669 24.784 178.669 24.616C178.669 24.344 178.581 24.124 178.405 23.956C178.237 23.78 178.013 23.628 177.733 23.5C177.461 23.372 177.145 23.256 176.785 23.152C176.425 23.048 176.057 22.932 175.681 22.804C175.313 22.676 174.949 22.524 174.589 22.348C174.237 22.172 173.921 21.952 173.641 21.688C173.369 21.416 173.145 21.084 172.969 20.692C172.801 20.3 172.717 19.824 172.717 19.264C172.717 18.752 172.817 18.268 173.017 17.812C173.217 17.348 173.517 16.94 173.917 16.588C174.317 16.236 174.813 15.956 175.405 15.748C176.005 15.54 176.697 15.436 177.481 15.436C178.361 15.436 179.161 15.58 179.881 15.868C180.601 16.156 181.193 16.532 181.657 16.996L180.901 18.172ZM196.607 15.436C197.535 15.436 198.379 15.584 199.139 15.88C199.899 16.176 200.551 16.6 201.095 17.152C201.639 17.696 202.059 18.36 202.355 19.144C202.651 19.928 202.799 20.812 202.799 21.796C202.799 22.78 202.651 23.668 202.355 24.46C202.059 25.244 201.639 25.912 201.095 26.464C200.551 27.016 199.899 27.44 199.139 27.736C198.379 28.032 197.535 28.18 196.607 28.18C195.671 28.18 194.819 28.032 194.051 27.736C193.291 27.44 192.639 27.016 192.095 26.464C191.551 25.912 191.127 25.244 190.823 24.46C190.527 23.668 190.379 22.78 190.379 21.796C190.379 20.812 190.527 19.928 190.823 19.144C191.127 18.36 191.551 17.696 192.095 17.152C192.639 16.6 193.291 16.176 194.051 15.88C194.819 15.584 195.671 15.436 196.607 15.436ZM196.607 25.696C197.551 25.696 198.251 25.372 198.707 24.724C199.163 24.068 199.391 23.096 199.391 21.808C199.391 20.528 199.163 19.564 198.707 18.916C198.251 18.26 197.551 17.932 196.607 17.932C195.639 17.932 194.927 18.26 194.471 18.916C194.015 19.564 193.787 20.528 193.787 21.808C193.787 23.096 194.015 24.068 194.471 24.724C194.927 25.372 195.639 25.696 196.607 25.696ZM215.186 17.668C215.578 16.964 216.03 16.408 216.542 16C217.054 15.592 217.654 15.388 218.342 15.388C218.902 15.388 219.358 15.52 219.71 15.784L219.494 18.232C219.454 18.392 219.39 18.504 219.302 18.568C219.222 18.624 219.11 18.652 218.966 18.652C218.838 18.652 218.654 18.636 218.414 18.604C218.174 18.564 217.95 18.544 217.742 18.544C217.438 18.544 217.166 18.588 216.926 18.676C216.694 18.764 216.486 18.888 216.302 19.048C216.118 19.208 215.95 19.404 215.798 19.636C215.654 19.868 215.518 20.132 215.39 20.428V28H212.078V15.628H214.034C214.37 15.628 214.602 15.688 214.73 15.808C214.858 15.928 214.95 16.136 215.006 16.432L215.186 17.668ZM232.597 28.192C232.037 28.192 231.541 28.112 231.109 27.952C230.677 27.784 230.313 27.548 230.017 27.244C229.721 26.94 229.497 26.572 229.345 26.14C229.193 25.708 229.117 25.22 229.117 24.676V18.004H227.953C227.777 18.004 227.625 17.948 227.497 17.836C227.377 17.724 227.317 17.556 227.317 17.332V16.036L229.297 15.676L229.969 12.472C230.057 12.112 230.301 11.932 230.701 11.932H232.429V15.7H235.621V18.004H232.429V24.46C232.429 24.804 232.509 25.076 232.669 25.276C232.837 25.476 233.073 25.576 233.377 25.576C233.537 25.576 233.673 25.56 233.785 25.528C233.897 25.488 233.993 25.448 234.073 25.408C234.153 25.36 234.225 25.32 234.289 25.288C234.361 25.248 234.433 25.228 234.505 25.228C234.601 25.228 234.681 25.252 234.745 25.3C234.809 25.34 234.873 25.412 234.937 25.516L235.933 27.1C235.477 27.46 234.961 27.732 234.385 27.916C233.809 28.1 233.213 28.192 232.597 28.192Z" fill="#AF9A7D"/>
</g>
<defs>
<filter id="filter0_d" x="12.5967" y="10.108" width="227.336" height="26.084" filterUnits="userSpaceOnUse" color-interpolation-filters="sRGB">
<feFlood flood-opacity="0" result="BackgroundImageFix"/>
<feColorMatrix in="SourceAlpha" type="matrix" values="0 0 0 0 0 0 0 0 0 0 0 0 0 0 0 0 0 0 127 0"/>
<feOffset dy="4"/>
<feGaussianBlur stdDeviation="2"/>
<feColorMatrix type="matrix" values="0 0 0 0 0 0 0 0 0 0 0 0 0 0 0 0 0 0 0.25 0"/>
<feBlend mode="normal" in2="BackgroundImageFix" result="effect1_dropShadow"/>
<feBlend mode="normal" in="SourceGraphic" in2="effect1_dropShadow" result="shape"/>
</filter>
</defs>
</svg>
